<?xml version="1.0" encoding="utf-8"?>
<!-- Generator: Adobe Illustrator 25.2.3, SVG Export Plug-In . SVG Version: 6.00 Build 0)  -->
<svg version="1.1" id="Layer_1" xmlns="http://www.w3.org/2000/svg" xmlns:xlink="http://www.w3.org/1999/xlink" x="0px" y="0px"
	 viewBox="0 0 21 21" style="enable-background:new 0 0 21 21;" xml:space="preserve">
<style type="text/css">
	.st0{fill:#4A64A1;}
	.st1{fill:#FFFFFF;}
	.st2{fill:none;stroke:#1D4B98;stroke-width:0.25;stroke-miterlimit:10;}
</style>
<g>
	<circle class="st0" cx="10.5" cy="10.5" r="9"/>
	<g>
		<g>
			<path class="st1" d="M4.5,11.6c-0.1-0.2-0.3-0.5-0.4-0.8l10.2-1.5c0,0,1.5-0.2,1.8-0.6c0,0-0.2,1.2-1,1.9c0,0-0.9,1.1-2.5,1.5"/>
			<path class="st1" d="M2.6,12.3c0,0,1.5-0.2,1.7-0.7c0,0,2,1.1,3.4,0c0,0,0.8,0.6,1.7,0.6c0.9,0,1.6-0.4,1.7-0.6
				c0,0,0.6,0.5,1.6,0.5s1.4-0.1,1.8-0.5c0,0,0.1,0.3,0.5,0.5c0.2,0.1,0.4,0.1,0.6,0.1c0.8,0,1.1,0,1.1,0"/>
			<line class="st1" x1="4.2" y1="11.1" x2="16" y2="9.4"/>
			<polyline class="st1" points="12.7,12.1 11.4,12.2 9.4,12.2 7.5,12.2 4.6,12.2 4.5,11.6 			"/>
		</g>
	</g>
	<g>
		<g>
			<path class="st2" d="M4.5,11.6c-0.1-0.2-0.3-0.5-0.4-0.8l10.2-1.5c0,0,1.5-0.2,1.8-0.6c0,0-0.2,1.2-1,1.9c0,0-0.9,1.1-2.5,1.5"/>
			<path class="st2" d="M2.6,12.3c0,0,1.5-0.2,1.7-0.7c0,0,2,1.1,3.4,0c0,0,0.8,0.6,1.7,0.6c0.9,0,1.6-0.4,1.7-0.6
				c0,0,0.6,0.5,1.6,0.5s1.4-0.1,1.8-0.5c0,0,0.1,0.3,0.5,0.5c0.2,0.1,0.4,0.1,0.6,0.1c0.8,0,1.1,0,1.1,0"/>
			<line class="st2" x1="4.2" y1="11.1" x2="16" y2="9.4"/>
		</g>
	</g>
</g>
</svg>
