<?xml version="1.0" encoding="utf-8"?>
<!-- Generator: Adobe Illustrator 25.2.3, SVG Export Plug-In . SVG Version: 6.00 Build 0)  -->
<svg version="1.1" id="Layer_1" xmlns="http://www.w3.org/2000/svg" xmlns:xlink="http://www.w3.org/1999/xlink" x="0px" y="0px"
	 viewBox="0 0 21 21" style="enable-background:new 0 0 21 21;" xml:space="preserve">
<style type="text/css">
	.st0{fill:#4A64A1;}
	.st1{fill:#FFFFFF;stroke:#1D4B98;stroke-width:0.25;stroke-miterlimit:10;}
</style>
<g>
	<circle class="st0" cx="10.5" cy="10.5" r="9"/>
	<g>
		<g>
			<path class="st1" d="M12.3,13.7c0,0,0-0.9-0.2-1.3c-0.2-0.4-0.2-0.9-0.7-1.3c-0.4-0.4-1.1-0.9-1.3-1.1C9.9,9.8,9.6,9.5,9.5,9.4
				C9.5,9.3,9.4,9.2,9.4,9.1l0.1,0.1c0,0,0.2,0.3,0.3,0.6c0.1,0.4,1,1.7,1.3,2.2C11.3,12.5,12.3,13.7,12.3,13.7
				C12.3,13.7,12.3,13.7,12.3,13.7L12.3,13.7z"/>
			<path class="st1" d="M9.4,9.1l-0.5-1C8.9,8.1,9,8.5,9.4,9.1z"/>
		</g>
		<g>
			<path class="st1" d="M8.5,9.6c0-0.4,0-0.7,0-0.7l0-0.1c0,0.1,0,0.2,0,0.3c0,0.1-0.2,0.5-0.3,0.8c-0.1,0.3-0.5,1-0.7,1.6
				c-0.2,0.6,0,1,0,1.5c0,0.5,0.4,1.3,0.4,1.3l0,0c0,0,0,0.1,0,0.1s0.3-1.5,0.4-2C8.4,11.6,8.5,10,8.5,9.6z"/>
			<path class="st1" d="M8.5,7.7l0,1.1C8.5,8.1,8.5,7.7,8.5,7.7z"/>
		</g>
		<path class="st1" d="M11.3,14.6c-0.2,0-0.4-0.4-0.4-0.4l0,0c-0.1-0.2-0.7-1.2-1.3-3c-0.7-2-0.7-2.9-0.7-3.8S8.9,6,9.1,5.3
			s0.8-1.9,0.8-1.9s-0.1,0-0.3-0.2C9.5,3.1,9.4,2.8,9.4,2.8S9,4.4,8.6,5.7C8.3,7.1,8.7,10,8.9,11.2c0.2,1.1,1.4,3.2,1.6,3.5l0,0
			c0,0.1-0.2,0.2-0.2,0.2l0.1,0.1l0.8-0.2C11.1,14.9,11.5,14.6,11.3,14.6z"/>
		<g>
			<path class="st1" d="M13,16.1c0,0,0.2,0.2,0.6,0.2c0.4,0,0.5-0.1,0.6-0.2c0.1-0.1,0.3-0.3,0.1-0.4c-0.2-0.1-0.7-0.2-1-0.4
				c-0.3-0.2-0.7-0.6-0.9-0.7c-0.1-0.1-0.4-0.1-0.5,0c-0.1,0.1-0.1,0.8,0.2,1.1c0.2,0.2,0.6,0.3,0.7,0.3C12.9,16,13,16.1,13,16.1z"
				/>
			<path class="st1" d="M11.8,16.5c0-0.1-0.2-1.1-0.2-1.1s0.2,0.1,0.2,0.1c0,0,0.8,0.4,1,0.5s0.2,0.3,0.3,0.5c0.1,0.1,0,0.1,0,0.2
				c-0.1,0.1-0.2,0.1-0.4,0.2c-0.1,0.1-0.1,0.3-0.2,0.4c0,0-0.3,0.1-0.5-0.2C11.7,16.8,11.8,16.5,11.8,16.5z"/>
			<path class="st1" d="M11.5,16.9c0,0-0.2,0-0.1-0.1s0.4,0.1,0.3,0.2c-0.1,0.1-0.4,0.3-0.6,0.1c-0.2-0.2-0.2-0.4,0-0.5
				c0.1-0.1,0.6-0.4,0.8-0.1c0.2,0.4,0.3,0.5,0,0.7s-0.6,0.3-0.8,0.2s-0.5-0.2-0.5-0.3c0-0.2,0.3-0.8,0.3-0.8l0.5-0.7
				c0,0,0.4,0.5,0.5,0.5c0,0,0.2,0.5,0.2,0.5s0.1,0.2,0.1,0.3"/>
			<path class="st1" d="M10.3,14.8L10.3,14.8c0,0-0.3,0.1-0.4,0.2c0,0.1-0.2,0.2-0.4,0.8c-0.1,0.6-0.3,1.3-0.5,1.4
				c-0.2,0.2-0.3,0.2-0.3,0.2s0,0.2,0.3,0.3c0.3,0.1,0.6,0.2,0.8-0.1c0.2-0.2,0.3-0.5,0.3-0.5L10.3,14.8z"/>
			<path class="st1" d="M11.4,15.6C11.4,15.6,11.4,15.6,11.4,15.6c0,0.2-0.1,0.8-0.1,0.9c-0.1,0.2-0.2,0.4-0.4,0.3
				c-0.1-0.1-0.1-0.1-0.1-0.1s0,0.4-0.1,0.4c-0.1,0.1-0.1,0.1-0.1,0.1s-0.3,0-0.4-0.1c-0.1-0.2-0.2-2.3,0.2-2.3c0.4,0,0.5-0.3,0.7,0
				C11.2,15,11.4,15.5,11.4,15.6z"/>
			<path class="st1" d="M11.3,14.5c0,0-0.2,0.1-0.2,0.3c0,0.2,0.1,0.7,0.3,0.9c0.2,0.2,0.4,0.4,0.4,0.6c0.1,0.1,0.2,0.4,0.3,0.4
				c0.2,0,0.5,0.1,0.6-0.2s0.1-0.4,0.1-0.4s0,0.1,0.1,0.1c0.1,0,0.2-0.4,0-0.8c-0.2-0.3-0.3-0.6-0.5-0.7c-0.1,0-0.2-0.1-0.2-0.1
				C11.8,14.5,11.8,14.3,11.3,14.5z"/>
		</g>
	</g>
</g>
</svg>
