<?xml version="1.0" encoding="utf-8"?>
<!-- Generator: Adobe Illustrator 25.2.3, SVG Export Plug-In . SVG Version: 6.00 Build 0)  -->
<svg version="1.1" id="Layer_1" xmlns="http://www.w3.org/2000/svg" xmlns:xlink="http://www.w3.org/1999/xlink" x="0px" y="0px"
	 viewBox="0 0 21 21" style="enable-background:new 0 0 21 21;" xml:space="preserve">
<style type="text/css">
	.st0{fill:#4A64A1;}
	.st1{fill:#FFFFFF;stroke:#1D4B98;stroke-width:0.25;stroke-miterlimit:10;}
	.st2{font-family:'ArialRoundedMTBold';}
	.st3{font-size:5.9131px;}
</style>
<g>
	<circle class="st0" cx="10.5" cy="10.5" r="9"/>
	<g>
		<g>
			<path class="st1" d="M4.5,8.5c0,0-0.1,0-0.1,0C4.2,8.4,4,8.3,3.8,8.2C3.7,8.1,3.6,8,3.7,7.8C3.7,7.7,3.9,7.7,4,7.7
				C4.2,7.8,4.4,7.9,4.6,8c0.1,0.1,0.2,0.2,0.1,0.3C4.7,8.4,4.6,8.5,4.5,8.5z"/>
		</g>
		<g>
			<path class="st1" d="M9.9,16.7c-0.1,0-0.2-0.1-0.3-0.2c0-0.1,0.1-0.3,0.2-0.3c0.3-0.1,0.7-0.2,1.1-0.4c0.1-0.1,0.3,0,0.4,0.1
				c0.1,0.1,0,0.3-0.1,0.4C10.8,16.5,10.4,16.7,9.9,16.7C10,16.7,10,16.7,9.9,16.7z M8.7,16.6c0,0-0.1,0-0.1,0
				c-0.4-0.2-0.8-0.5-1-0.9c-0.1-0.1-0.1-0.3,0.1-0.4c0.1-0.1,0.3-0.1,0.4,0.1c0.2,0.3,0.5,0.6,0.9,0.7C9,16.1,9,16.3,8.9,16.4
				C8.9,16.5,8.8,16.6,8.7,16.6z M12.1,15.5c-0.1,0-0.1,0-0.2-0.1c-0.1-0.1-0.1-0.3,0-0.4c0.3-0.3,0.6-0.6,0.8-0.9
				c0.1-0.1,0.2-0.1,0.4-0.1c0.1,0.1,0.1,0.2,0.1,0.4c-0.2,0.3-0.5,0.7-0.9,1C12.3,15.5,12.2,15.5,12.1,15.5z M7.2,14.6
				c-0.1,0-0.2-0.1-0.2-0.2c0-0.1,0-0.2-0.1-0.2c0-0.2-0.1-0.4-0.1-0.6c0-0.2,0-0.4,0.1-0.6c0-0.1,0.2-0.2,0.3-0.2
				c0.1,0,0.2,0.2,0.2,0.3c0,0.2-0.1,0.3-0.1,0.5c0,0.1,0,0.3,0,0.5c0,0.1,0,0.1,0.1,0.2C7.5,14.4,7.4,14.6,7.2,14.6
				C7.2,14.6,7.2,14.6,7.2,14.6z M13.6,13.4c0,0-0.1,0-0.1,0c-0.1-0.1-0.2-0.2-0.1-0.3c0.2-0.3,0.3-0.5,0.6-0.8
				c0.1-0.1,0.2-0.2,0.3-0.3c0.1-0.1,0.3-0.1,0.4,0c0.1,0.1,0.1,0.3,0,0.4c-0.1,0.1-0.2,0.1-0.2,0.2c-0.2,0.2-0.4,0.4-0.5,0.7
				C13.7,13.4,13.7,13.4,13.6,13.4z M7.5,12.1C7.5,12.1,7.5,12.1,7.5,12.1c-0.2,0-0.3-0.2-0.3-0.3c0-0.1,0-0.2,0-0.3
				c0-0.1,0-0.1,0-0.2c0-0.2-0.1-0.4-0.2-0.6c-0.1-0.1,0-0.3,0.1-0.3c0.1-0.1,0.3,0,0.3,0.1c0.1,0.2,0.2,0.5,0.2,0.7
				c0,0.1,0,0.1,0,0.2c0,0.1,0,0.3,0,0.4C7.7,12.1,7.6,12.1,7.5,12.1z M6.6,9.9c-0.1,0-0.1,0-0.2-0.1c-0.3-0.3-0.6-0.5-1-0.7
				C5.4,9,5.3,8.8,5.4,8.7c0.1-0.1,0.2-0.2,0.4-0.1c0.4,0.3,0.8,0.5,1,0.8c0.1,0.1,0.1,0.3,0,0.4C6.7,9.9,6.7,9.9,6.6,9.9z"/>
		</g>
		<g>
			<path class="st1" d="M15.4,11.8c-0.1,0-0.2-0.1-0.2-0.2c-0.1-0.1,0-0.3,0.1-0.3c0.2-0.1,0.4-0.2,0.6-0.2c0.1,0,0.3,0,0.3,0.2
				c0,0.1,0,0.3-0.2,0.3c-0.2,0.1-0.4,0.1-0.6,0.2C15.5,11.8,15.5,11.8,15.4,11.8z"/>
		</g>
	</g>
	<circle class="st1" cx="11.8" cy="15.7" r="1"/>
	<text transform="matrix(1 0 0 1 9.6914 9.5947)" class="st1 st2 st3">!</text>
	<circle class="st1" cx="6.8" cy="10.1" r="1"/>
</g>
</svg>
